<?xml version="1.0" encoding="utf-8"?>
<!-- Generator: Adobe Illustrator 24.1.3, SVG Export Plug-In . SVG Version: 6.00 Build 0)  -->
<svg version="1.1"
	 id="svg2" xmlns:cc="http://creativecommons.org/ns#" xmlns:dc="http://purl.org/dc/elements/1.1/" xmlns:inkscape="http://www.inkscape.org/namespaces/inkscape" xmlns:rdf="http://www.w3.org/1999/02/22-rdf-syntax-ns#" xmlns:sodipodi="http://sodipodi.sourceforge.net/DTD/sodipodi-0.dtd" xmlns:svg="http://www.w3.org/2000/svg"
	 xmlns="http://www.w3.org/2000/svg" xmlns:xlink="http://www.w3.org/1999/xlink" x="0px" y="0px" viewBox="0 0 100 100"
	 style="enable-background:new 0 0 100 100;" xml:space="preserve">
<style type="text/css">
	
		.st0{opacity:0.99;stroke:#FFFFFF;stroke-width:3.6;stroke-linecap:round;stroke-linejoin:round;stroke-miterlimit:2.8834;enable-background:new    ;}
	
		.st1{opacity:0.99;stroke:#FFFFFF;stroke-width:3.2898;stroke-linecap:round;stroke-linejoin:round;stroke-miterlimit:12;enable-background:new    ;}
	.st2{stroke:#FFFFFF;stroke-width:0.6;stroke-linecap:round;stroke-linejoin:round;stroke-miterlimit:12;}
</style>
<g id="layer1" transform="translate(0,-952.36218)">
	<g id="g4646" transform="matrix(2.9999994,0,0,2.9999994,-99.999974,-2004.7238)">
		<path id="path4648" d="M65,1002.4c0,8.3-6.7,15-15,15s-15-6.7-15-15s6.7-15,15-15S65,994.1,65,1002.4z"/>
		<path id="path4650" class="st0" d="M43.6,1008c-2.5-3.5-1.8-8.4,1.7-10.9s8.4-1.8,10.9,1.7c2,2.7,2,6.5,0,9.2"/>
		<path id="path4652" class="st1" d="M45.7,1006.3c-1.7-2.3-1.2-5.6,1.2-7.3s5.6-1.2,7.3,1.2c1.3,1.9,1.3,4.4,0,6.2"/>
		<path id="path4654" class="st2" d="M45.5,1010.5v-1.3c0-1.1,3.3-2.2,3.3-2.2v-1.1c-1.1-1.1-1.1-4.5,1.1-4.5s2.2,3.3,1.1,4.5v1.1
			c0,0,3.3,1.1,3.3,2.2v1.3H45.5z"/>
	</g>
</g>
</svg>
